<svg width="43" height="43" viewBox="0 0 43 43" fill="none" xmlns="http://www.w3.org/2000/svg">
<path d="M22.8027 41.9771V24.1054H18.0948V19.1003H22.8027V14.5753C22.7537 12.5961 23.3447 10.027 26.1165 9.73021H34.0011V14.5753H30.5273C28.1459 14.6896 27.916 14.9095 28.0819 16.8378V19.1003H33.2469L32.0357 24.1054H28.0819V41.9771M10.1873 42H32.8127C37.8867 42 42 37.8867 42 32.8127V10.1873C42 5.11329 37.8867 1 32.8127 1H10.1873C5.11329 1 1 5.11329 1 10.1873V32.8127C1 37.8867 5.11329 42 10.1873 42Z" stroke="white" stroke-width="1.5"/>
</svg>
