<svg width="43" height="43" viewBox="0 0 43 43" fill="none" xmlns="http://www.w3.org/2000/svg">
<path d="M1 10.9806C1 5.46848 5.58908 1 11.25 1H31.75C37.4109 1 42 5.46848 42 10.9806V32.0194C42 37.5315 37.4109 42 31.75 42H11.25C5.58908 42 1 37.5315 1 32.0194V10.9806Z" stroke="white" stroke-width="1.5"/>
<path d="M31.75 21.5C31.75 26.9965 27.174 31.4523 21.5291 31.4523C15.8843 31.4523 11.3082 26.9965 11.3082 21.5C11.3082 16.0035 15.8843 11.5477 21.5291 11.5477C27.174 11.5477 31.75 16.0035 31.75 21.5Z" stroke="white" stroke-width="1.5"/>
<path d="M37.3409 8.82573C37.3409 10.329 36.0893 11.5477 34.5455 11.5477C33.0016 11.5477 31.75 10.329 31.75 8.82573C31.75 7.32241 33.0016 6.10373 34.5455 6.10373C36.0893 6.10373 37.3409 7.32241 37.3409 8.82573Z" stroke="white" stroke-width="1.5"/>
</svg>
