<svg width="43" height="43" viewBox="0 0 43 43" fill="none" xmlns="http://www.w3.org/2000/svg">
<path d="M1.93182 13.5019V12.7519C1.5176 12.7519 1.18182 13.0877 1.18182 13.5019H1.93182ZM1.93182 29.1875H1.18182C1.18182 29.6017 1.5176 29.9375 1.93182 29.9375V29.1875ZM7.60038 29.1875V29.9375C8.01459 29.9375 8.35038 29.6017 8.35038 29.1875H7.60038ZM7.60038 21.9659L8.2058 21.5232C8.01427 21.2613 7.676 21.1522 7.36754 21.253C7.05907 21.3537 6.85038 21.6414 6.85038 21.9659H7.60038ZM12.8807 29.1875L12.2753 29.6302C12.4165 29.8233 12.6414 29.9375 12.8807 29.9375V29.1875ZM28.4886 29.1875V29.9375C28.9028 29.9375 29.2386 29.6017 29.2386 29.1875H28.4886ZM28.4886 24.2955V23.5455C28.0744 23.5455 27.7386 23.8812 27.7386 24.2955H28.4886ZM32.7595 24.2955L32.9177 23.5623C32.8657 23.5511 32.8126 23.5455 32.7595 23.5455V24.2955ZM34.1572 25.6932H34.9072C34.9072 25.6626 34.9053 25.632 34.9016 25.6016L34.1572 25.6932ZM34.1572 29.1875H33.4072C33.4072 29.6017 33.743 29.9375 34.1572 29.9375V29.1875ZM40.9129 29.1875V29.9375C41.2289 29.9375 41.511 29.7394 41.6183 29.4422C41.7256 29.145 41.6351 28.8124 41.3921 28.6105L40.9129 29.1875ZM40.1364 26.625L40.8854 26.6634C40.886 26.6506 40.8864 26.6378 40.8864 26.625H40.1364ZM40.1364 24.2955H40.8864C40.8864 24.2563 40.8833 24.2173 40.8772 24.1787L40.1364 24.2955ZM38.3504 21.9659L37.9998 21.3029C37.7105 21.4559 37.5538 21.7787 37.6126 22.1006C37.6713 22.4225 37.932 22.6692 38.2567 22.71L38.3504 21.9659ZM40.9129 18.6269L41.6374 18.8209C41.6543 18.7576 41.6629 18.6924 41.6629 18.6269H40.9129ZM40.9129 16.9962H41.6629C41.6629 16.907 41.6469 16.8184 41.6158 16.7348L40.9129 16.9962ZM36.7197 13.5019L36.9171 12.7783C36.8527 12.7608 36.7864 12.7519 36.7197 12.7519V13.5019ZM12.8807 13.5019V12.7519C12.4665 12.7519 12.1307 13.0877 12.1307 13.5019H12.8807ZM12.8807 21.267L12.2605 21.6888C12.4456 21.961 12.7866 22.0807 13.1013 21.9839C13.416 21.887 13.6307 21.5963 13.6307 21.267H12.8807ZM7.60038 13.5019L8.22057 13.0802C8.08094 12.8748 7.84871 12.7519 7.60038 12.7519V13.5019ZM21.0341 15.6761L21.7826 15.6286C21.7585 15.249 21.4541 14.9476 21.0743 14.9272C20.6946 14.9068 20.3597 15.1738 20.295 15.5486L21.0341 15.6761ZM15.4432 21.9659L15.3569 21.2209C14.9552 21.2674 14.6627 21.6241 14.6957 22.0271C14.7287 22.4302 15.0753 22.7345 15.4792 22.715L15.4432 21.9659ZM21.0341 27.4792L20.2887 27.5621C20.3326 27.9562 20.6756 28.2481 21.0716 28.2282C21.4676 28.2084 21.7798 27.8837 21.784 27.4872L21.0341 27.4792ZM26.5473 21.9659L26.5592 22.7158C26.9533 22.7096 27.2754 22.3993 27.2963 22.0056C27.3172 21.612 27.0297 21.2693 26.6384 21.2215L26.5473 21.9659ZM28.4886 17.5398V16.7898C28.0744 16.7898 27.7386 17.1256 27.7386 17.5398H28.4886ZM28.4886 20.1023H27.7386C27.7386 20.5165 28.0744 20.8523 28.4886 20.8523V20.1023ZM32.7595 20.1023V20.8523C32.7765 20.8523 32.7935 20.8517 32.8105 20.8505L32.7595 20.1023ZM34.3902 19.0152L35.011 19.436C35.134 19.2544 35.1714 19.0281 35.1134 18.8167L34.3902 19.0152ZM32.7595 17.5398L32.8097 16.7915C32.793 16.7903 32.7762 16.7898 32.7595 16.7898V17.5398ZM1.75 10.1945C1.75 5.53074 5.53074 1.75 10.1945 1.75V0.25C4.70231 0.25 0.25 4.70231 0.25 10.1945H1.75ZM10.1945 1.75H32.8055V0.25H10.1945V1.75ZM32.8055 1.75C37.4693 1.75 41.25 5.53074 41.25 10.1945H42.75C42.75 4.70231 38.2977 0.25 32.8055 0.25V1.75ZM41.25 10.1945V32.8055H42.75V10.1945H41.25ZM41.25 32.8055C41.25 37.4693 37.4693 41.25 32.8055 41.25V42.75C38.2977 42.75 42.75 38.2977 42.75 32.8055H41.25ZM32.8055 41.25H10.1945V42.75H32.8055V41.25ZM10.1945 41.25C5.53074 41.25 1.75 37.4693 1.75 32.8055H0.25C0.25 38.2977 4.70231 42.75 10.1945 42.75V41.25ZM1.75 32.8055V10.1945H0.25V32.8055H1.75ZM1.18182 13.5019V29.1875H2.68182V13.5019H1.18182ZM1.93182 29.9375H7.60038V28.4375H1.93182V29.9375ZM8.35038 29.1875V21.9659H6.85038V29.1875H8.35038ZM6.99495 22.4086L12.2753 29.6302L13.4861 28.7448L8.2058 21.5232L6.99495 22.4086ZM12.8807 29.9375H28.4886V28.4375H12.8807V29.9375ZM29.2386 29.1875V24.2955H27.7386V29.1875H29.2386ZM28.4886 25.0455H32.7595V23.5455H28.4886V25.0455ZM32.6013 25.0286C33.0675 25.1292 33.2071 25.2242 33.2584 25.276C33.2942 25.3122 33.3661 25.4051 33.4128 25.7847L34.9016 25.6016C34.8412 25.1104 34.7117 24.6117 34.3242 24.2205C33.9522 23.8448 33.4464 23.6764 32.9177 23.5623L32.6013 25.0286ZM33.4072 25.6932V29.1875H34.9072V25.6932H33.4072ZM34.1572 29.9375H40.9129V28.4375H34.1572V29.9375ZM41.3921 28.6105C41.1402 28.4014 41.0353 28.2563 40.9692 28.0532C40.8892 27.8075 40.8469 27.4135 40.8854 26.6634L39.3873 26.5866C39.3469 27.3767 39.3742 27.9993 39.5429 28.5175C39.7254 29.0782 40.0482 29.4443 40.4337 29.7645L41.3921 28.6105ZM40.8864 26.625V24.2955H39.3864V26.625H40.8864ZM40.8772 24.1787C40.7626 23.4514 40.6232 22.7449 40.2598 22.2107C39.8444 21.6002 39.2243 21.32 38.4441 21.2218L38.2567 22.71C38.7683 22.7745 38.9238 22.9136 39.0196 23.0545C39.1674 23.2717 39.2751 23.6486 39.3955 24.4122L40.8772 24.1787ZM38.701 22.6289C39.4977 22.2076 40.1209 21.7684 40.6051 21.1414C41.0853 20.5197 41.3824 19.7731 41.6374 18.8209L40.1884 18.4329C39.9547 19.3058 39.7214 19.8316 39.4179 20.2246C39.1185 20.6123 38.7047 20.9301 37.9998 21.3029L38.701 22.6289ZM41.6629 18.6269V16.9962H40.1629V18.6269H41.6629ZM41.6158 16.7348C41.2498 15.7506 40.8344 14.9264 40.0787 14.2603C39.3338 13.6036 38.3303 13.1638 36.9171 12.7783L36.5223 14.2255C37.8542 14.5888 38.5967 14.9535 39.0868 15.3855C39.5662 15.808 39.8748 16.3565 40.2099 17.2576L41.6158 16.7348ZM36.7197 12.7519H12.8807V14.2519H36.7197V12.7519ZM12.1307 13.5019V21.267H13.6307V13.5019H12.1307ZM13.5009 20.8453L8.22057 13.0802L6.98018 13.9236L12.2605 21.6888L13.5009 20.8453ZM7.60038 12.7519H1.93182V14.2519H7.60038V12.7519ZM20.295 15.5486C19.9137 17.7584 19.4479 19.0427 18.7473 19.838C18.0781 20.5977 17.0937 21.0197 15.3569 21.2209L15.5295 22.7109C17.4184 22.4921 18.8452 21.9962 19.8729 20.8295C20.8692 19.6984 21.386 18.0477 21.7732 15.8037L20.295 15.5486ZM15.4792 22.715C17.4467 22.6204 18.4368 22.9347 19.0347 23.5557C19.6739 24.2196 20.0487 25.4065 20.2887 27.5621L21.7795 27.3962C21.5403 25.2476 21.141 23.5806 20.1153 22.5153C19.0482 21.4071 17.4824 21.1169 15.4071 21.2168L15.4792 22.715ZM21.784 27.4872C21.8064 25.4096 22.1025 24.3263 22.705 23.7076C23.3038 23.0926 24.3899 22.75 26.5592 22.7158L26.5355 21.216C24.3319 21.2507 22.6837 21.5793 21.6303 22.6611C20.5806 23.7391 20.3066 25.3779 20.2841 27.4711L21.784 27.4872ZM26.6384 21.2215C24.8247 20.9995 23.7663 20.6815 23.0798 19.9846C22.395 19.2895 21.9375 18.0663 21.7826 15.6286L20.2856 15.7237C20.4453 18.2372 20.9268 19.9365 22.0112 21.0373C23.0938 22.1362 24.6348 22.4875 26.4563 22.7104L26.6384 21.2215ZM27.7386 17.5398V20.1023H29.2386V17.5398H27.7386ZM28.4886 20.8523H32.7595V19.3523H28.4886V20.8523ZM32.8105 20.8505C33.2783 20.8186 33.6988 20.7138 34.0903 20.4455C34.4584 20.1933 34.7395 19.8365 35.011 19.436L33.7693 18.5943C33.5208 18.961 33.3686 19.1217 33.2424 19.2082C33.1395 19.2787 33.0047 19.3338 32.7084 19.354L32.8105 20.8505ZM35.1134 18.8167C34.9851 18.3491 34.8213 17.8181 34.4366 17.4234C34.0173 16.9934 33.4576 16.8349 32.8097 16.7915L32.7093 18.2881C33.19 18.3203 33.3142 18.421 33.3625 18.4706C33.4453 18.5554 33.5326 18.7243 33.6669 19.2136L35.1134 18.8167ZM32.7595 16.7898H28.4886V18.2898H32.7595V16.7898Z" fill="white"/>
</svg>
